<svg width="554" height="441" viewBox="0 0 554 441" fill="none" xmlns="http://www.w3.org/2000/svg">
<g clip-path="url(#clip0_160_1145)">
<path d="M147.044 101.365L81.1399 92.5748L94.4767 24.9985L165.273 38.9853L147.044 101.365Z" fill="#2F2E41"/>
<path d="M83.6918 393.713V114.935C83.6918 109.884 87.7995 105.773 92.8492 105.773H544.843C549.892 105.773 554 109.884 554 114.935V393.713C554 398.765 549.892 402.875 544.843 402.875H92.8492C87.7995 402.875 83.6918 398.765 83.6918 393.713ZM552.341 114.935C552.341 110.792 548.984 107.433 544.843 107.433H92.8492C88.7079 107.433 85.3508 110.792 85.3508 114.935V393.713C85.3508 397.857 88.7079 401.215 92.8492 401.215H414.124C490.459 401.215 552.341 339.302 552.341 262.927V114.935Z" fill="#3F3D56"/>
<path d="M508.237 147.514L501.411 144.279C504.211 148.188 506.623 154.294 507.915 159.152C510.102 154.627 513.627 149.089 517.117 145.781L509.902 147.638C514.348 125.839 531.069 110.189 550.218 110.189L550.489 109.401C530.488 109.401 512.777 124.834 508.237 147.514Z" fill="#3F3D56"/>
<path d="M539.657 180.729H496.525C494.695 180.729 493.207 179.24 493.207 177.41C493.207 175.58 494.695 174.09 496.525 174.09H539.657C541.486 174.09 542.975 175.58 542.975 177.41C542.975 179.24 541.486 180.729 539.657 180.729Z" fill="#4760ED"/>
<path d="M411.595 205.662V293.631C411.595 301.41 405.27 307.739 397.494 307.739H309.571C301.795 307.739 295.47 301.41 295.47 293.631V205.662C295.47 197.883 301.795 191.554 309.571 191.554H397.494C405.27 191.554 411.595 197.883 411.595 205.662ZM392.04 306.079C401.924 306.079 409.936 298.063 409.936 288.174V249.281C409.936 218.316 384.847 193.214 353.898 193.214H309.571C302.699 193.214 297.129 198.787 297.129 205.662V281.357C297.129 295.011 308.191 306.079 321.838 306.079H392.04Z" fill="#3F3D56"/>
<path d="M365.236 227.482H336.852C336.136 227.482 335.554 226.9 335.554 226.184C335.554 225.468 336.136 224.885 336.852 224.885H365.236C365.952 224.885 366.534 225.468 366.534 226.184C366.534 226.9 365.952 227.482 365.236 227.482Z" fill="#3F3D56"/>
<path d="M365.236 255.171H336.852C336.136 255.171 335.554 254.588 335.554 253.872C335.554 253.156 336.136 252.574 336.852 252.574H365.236C365.952 252.574 366.534 253.156 366.534 253.872C366.534 254.588 365.952 255.171 365.236 255.171Z" fill="#3F3D56"/>
<path d="M351.136 293.345H322.751C322.035 293.345 321.453 292.763 321.453 292.047C321.453 291.331 322.035 290.749 322.751 290.749H351.136C351.851 290.749 352.433 291.331 352.433 292.047C352.433 292.763 351.851 293.345 351.136 293.345Z" fill="#3F3D56"/>
<path d="M380.468 241.335H321.62C320.904 241.335 320.322 240.753 320.322 240.037C320.322 239.321 320.904 238.738 321.62 238.738H380.468C381.184 238.738 381.766 239.321 381.766 240.037C381.766 240.753 381.184 241.335 380.468 241.335Z" fill="#3F3D56"/>
<path d="M152.307 251.142H55.031C63.1845 232.939 68.1972 215.603 60.3611 201.813L152.307 196.48C147.712 215.096 147.15 233.365 152.307 251.142Z" fill="#FFB6B6"/>
<path d="M185.809 402.876H114.296C113.778 402.876 113.307 402.58 113.081 402.114L112.645 401.216L103.142 381.698C102.53 380.442 100.647 380.829 100.58 382.225L99.6641 401.216L99.6453 401.592C99.6094 402.311 99.0163 402.876 98.2969 402.876H27.8865C27.175 402.876 26.5852 402.322 26.5385 401.612C26.5298 401.479 26.5213 401.347 26.5134 401.216C22.0177 331.795 38.184 284.74 47.6648 263.686L47.6731 263.678C51.3974 255.395 54.1015 251.138 54.1015 251.138L55.0388 251.13H55.0471L73.9838 250.798H73.9921L90.7639 250.515L103.438 250.308L108.523 250.217H108.531L111.716 250.167L127.551 249.893L141.693 249.652L151.846 249.486H152.128L153.638 256.001V256.009L153.696 256.3V256.308L153.953 257.379L153.961 257.412L154.475 259.661V259.677L154.509 259.802V259.81L154.633 260.35L154.641 260.375L155.836 265.545L157.768 273.952L160.315 284.948L163.525 298.906L165.151 305.936L167.382 315.621L187.123 401.216C187.322 402.064 186.679 402.876 185.809 402.876Z" fill="#2F2E41"/>
<path d="M138.263 89.0341L99.5507 87.6826L84.2485 108.213L76.1967 109.962C64.127 112.585 55.8473 123.722 56.8091 136.042L60.4667 221.394L62.1257 231.353L153.367 246.291L173.883 117.12L146.887 107.417L138.263 89.0341Z" fill="#4760ED"/>
<path d="M124.135 85.7966C143.327 85.7966 158.884 70.2311 158.884 51.0301C158.884 31.8292 143.327 16.2637 124.135 16.2637C104.944 16.2637 89.3868 31.8292 89.3868 51.0301C89.3868 70.2311 104.944 85.7966 124.135 85.7966Z" fill="#FFB6B6"/>
<path d="M511.105 399.648L480.98 388.446C476.462 386.766 474.152 381.722 475.831 377.201L505.427 297.523C507.106 293.002 512.148 290.691 516.667 292.371L546.792 303.572C551.31 305.252 553.62 310.297 551.941 314.818C540.617 347.023 528.264 383.209 522.345 394.496C520.666 399.017 515.624 401.328 511.105 399.648Z" fill="#3F3D56"/>
<path d="M544.52 336.084C544.329 336.013 544.115 336.11 544.044 336.302L539.922 347.401C539.851 347.592 539.948 347.805 540.14 347.876C540.331 347.947 540.544 347.85 540.615 347.658L544.738 336.559C544.809 336.368 544.711 336.155 544.52 336.084Z" fill="#3F3D56"/>
<path d="M551.161 314.528L521.565 394.204C520.104 398.139 515.847 400.22 511.884 399.03L511.882 399.03C511.824 399.012 511.765 398.994 511.706 398.974C511.602 398.941 511.499 398.905 511.395 398.866C511.395 398.866 511.024 398.697 510.346 398.385C509.662 398.072 508.666 397.613 507.427 397.036C507.055 396.864 506.663 396.681 506.25 396.487C505.426 396.102 504.522 395.679 503.554 395.22C503.167 395.039 502.769 394.849 502.361 394.656C500.277 393.67 497.946 392.557 495.495 391.365C495.08 391.166 494.662 390.963 494.242 390.757C494.132 390.703 476.266 378.419 476.612 377.489L506.207 297.813C507.729 293.715 512.282 291.628 516.378 293.151L520.805 294.797C521.512 295.06 521.875 295.823 521.674 296.551C521.662 296.6 521.65 296.649 521.641 296.699C521.506 297.456 521.972 298.192 522.693 298.46L538.253 304.245C538.975 304.514 539.808 304.261 540.2 303.599C540.226 303.556 540.248 303.511 540.271 303.466C540.594 302.783 541.367 302.443 542.074 302.706L546.501 304.352C550.597 305.875 552.683 310.43 551.161 314.528Z" fill="#4760ED"/>
<path d="M500.504 310.244C500.313 310.173 500.1 310.271 500.029 310.462L498.998 313.237C498.927 313.428 499.025 313.641 499.216 313.712C499.407 313.783 499.621 313.686 499.692 313.494L500.722 310.72C500.793 310.528 500.696 310.315 500.504 310.244Z" fill="#3F3D56"/>
<path d="M497.412 318.568C497.221 318.497 497.008 318.595 496.937 318.786L494.94 324.162C494.869 324.353 494.967 324.567 495.158 324.638C495.349 324.709 495.562 324.611 495.633 324.42L497.63 319.044C497.701 318.853 497.604 318.639 497.412 318.568Z" fill="#3F3D56"/>
<path d="M494.578 326.198C494.387 326.127 494.174 326.225 494.103 326.416L492.106 331.793C492.035 331.984 492.132 332.197 492.324 332.268C492.515 332.339 492.728 332.242 492.799 332.05L494.796 326.674C494.867 326.483 494.769 326.27 494.578 326.198Z" fill="#3F3D56"/>
<path d="M520.231 295.966L513.605 293.502C513.568 293.489 513.527 293.508 513.513 293.545L513.241 294.278C513.227 294.315 513.246 294.356 513.283 294.37L519.909 296.833C519.946 296.847 519.987 296.828 520.001 296.791L520.273 296.058C520.287 296.021 520.268 295.98 520.231 295.966Z" fill="#E6E6E6"/>
<path d="M542.654 305.241C543.063 305.241 543.394 304.91 543.394 304.501C543.394 304.093 543.063 303.761 542.654 303.761C542.246 303.761 541.915 304.093 541.915 304.501C541.915 304.91 542.246 305.241 542.654 305.241Z" fill="#E6E6E6"/>
<path d="M544.561 305.95C544.969 305.95 545.301 305.619 545.301 305.21C545.301 304.802 544.969 304.47 544.561 304.47C544.152 304.47 543.821 304.802 543.821 305.21C543.821 305.619 544.152 305.95 544.561 305.95Z" fill="#E6E6E6"/>
<path d="M546.468 306.659C546.876 306.659 547.207 306.328 547.207 305.919C547.207 305.511 546.876 305.179 546.468 305.179C546.059 305.179 545.728 305.511 545.728 305.919C545.728 306.328 546.059 306.659 546.468 306.659Z" fill="#E6E6E6"/>
<path d="M437.243 148.048H411.229C407.882 148.048 405.159 145.323 405.159 141.974V112.627C405.159 109.278 407.882 106.553 411.229 106.553H437.243C440.591 106.553 443.314 109.278 443.314 112.627V141.974C443.314 145.323 440.591 148.048 437.243 148.048Z" fill="white"/>
<path d="M437.243 148.048H411.229C407.882 148.048 405.159 145.323 405.159 141.974C403.851 131.168 403.49 121.103 405.159 112.627C405.159 109.278 407.882 106.553 411.229 106.553H437.243C440.591 106.553 443.314 109.278 443.314 112.627V141.974C443.314 145.323 440.591 148.048 437.243 148.048ZM411.229 107.383C408.339 107.383 405.988 109.735 405.988 112.627V141.974C405.988 144.866 408.339 147.218 411.229 147.218H437.243C440.134 147.218 442.485 144.866 442.485 141.974V112.627C442.485 109.735 440.134 107.383 437.243 107.383H411.229Z" fill="#3F3D56"/>
<path d="M434.615 124.396H413.18C412.271 124.396 411.532 123.656 411.532 122.746C411.532 121.837 412.271 121.097 413.18 121.097H434.615C435.524 121.097 436.264 121.837 436.264 122.746C436.264 123.656 435.524 124.396 434.615 124.396Z" fill="#4760ED"/>
<path d="M434.615 133.525H413.18C412.271 133.525 411.532 132.785 411.532 131.875C411.532 130.966 412.271 130.226 413.18 130.226H434.615C435.524 130.226 436.264 130.966 436.264 131.875C436.264 132.785 435.524 133.525 434.615 133.525Z" fill="#4760ED"/>
<path d="M434.615 115.267H413.18C412.271 115.267 411.532 114.527 411.532 113.617C411.532 112.708 412.271 111.968 413.18 111.968H434.615C435.524 111.968 436.264 112.708 436.264 113.617C436.264 114.527 435.524 115.267 434.615 115.267Z" fill="#4760ED"/>
<path d="M112.32 96.6202C114.224 100.212 116.781 103.075 119.492 104.927L135.471 140.286L152.065 132.187L134.069 97.1907C134.057 93.9061 133.121 90.1823 131.217 86.5909C126.868 78.3865 119.111 73.9807 113.893 76.7502C108.674 79.5197 107.97 88.4158 112.32 96.6202Z" fill="#FFB6B6"/>
<path d="M148.3 118.907C148.3 118.907 172.638 106.147 180.189 119.545C186.632 130.977 191.287 188.178 192.515 204.725C192.731 207.63 191.973 210.514 190.362 212.94C185.589 220.122 175.3 220.807 169.618 214.32L120.302 117.167L143.695 106.044L149.416 119.907L148.3 118.907Z" fill="#4760ED"/>
<path d="M200.333 255.774C200.867 255.017 201.182 254.093 201.182 253.096V167.954C201.182 165.385 199.101 163.302 196.533 163.302H67.8987C65.3307 163.302 63.249 165.385 63.249 167.954V253.096C63.249 254.093 63.5639 255.017 64.0982 255.774H48.0326V260.238C103.889 263.363 160.011 263.363 216.399 260.238V255.774H200.333Z" fill="#3F3D56"/>
<path d="M338.537 441H312.523C309.175 441 306.452 438.275 306.452 434.926V405.579C306.452 402.23 309.175 399.505 312.523 399.505H338.537C341.884 399.505 344.608 402.23 344.608 405.579V434.926C344.608 438.275 341.884 441 338.537 441Z" fill="white"/>
<path d="M338.537 441H312.523C309.175 441 306.452 438.275 306.452 434.926C305.144 424.12 304.784 414.055 306.452 405.579C306.452 402.23 309.175 399.505 312.523 399.505H338.537C341.884 399.505 344.608 402.23 344.608 405.579V434.926C344.608 438.275 341.884 441 338.537 441ZM312.523 400.335C309.633 400.335 307.281 402.688 307.281 405.579V434.926C307.281 437.818 309.633 440.17 312.523 440.17H338.537C341.427 440.17 343.778 437.818 343.778 434.926V405.579C343.778 402.688 341.427 400.335 338.537 400.335H312.523Z" fill="#3F3D56"/>
<path d="M335.908 417.348H314.474C313.565 417.348 312.825 416.608 312.825 415.698C312.825 414.789 313.565 414.049 314.474 414.049H335.908C336.817 414.049 337.557 414.789 337.557 415.698C337.557 416.608 336.817 417.348 335.908 417.348Z" fill="#4760ED"/>
<path d="M335.908 426.477H314.474C313.565 426.477 312.825 425.737 312.825 424.827C312.825 423.918 313.565 423.178 314.474 423.178H335.908C336.817 423.178 337.557 423.918 337.557 424.827C337.557 425.737 336.817 426.477 335.908 426.477Z" fill="#4760ED"/>
<path d="M335.908 408.219H314.474C313.565 408.219 312.825 407.479 312.825 406.57C312.825 405.66 313.565 404.92 314.474 404.92H335.908C336.817 404.92 337.557 405.66 337.557 406.57C337.557 407.479 336.817 408.219 335.908 408.219Z" fill="#4760ED"/>
<path d="M111.595 244.51C107.532 244.532 103.811 245.47 100.913 247.013L62.1926 244.772L61.6656 263.237L101 263.522C103.914 265.035 107.645 265.934 111.709 265.912C120.991 265.863 128.49 261.032 128.459 255.122C128.428 249.212 120.878 244.461 111.595 244.51Z" fill="#FFB6B6"/>
<path d="M74.3943 110.026C74.3943 110.026 41.479 106.356 33.0943 126.787C26.6892 142.393 10.0492 203.22 0.711617 238.045C-2.70226 250.777 6.57872 263.383 19.7439 263.905L77.8855 266.209L81.2485 240.475L39.73 233.843L62.9551 164.132L74.3943 110.026Z" fill="#4760ED"/>
<path d="M158.893 24.1901C160.564 15.7235 150.309 12.4352 142.629 8.50669L136.108 2.98891C129.272 -0.507737 121.279 -0.957373 114.095 1.75056L91.6728 9.21803C81.4953 13.054 77.944 22.1854 72.0793 31.349L62.2486 44.4799C56.4752 53.5006 58.2012 67.584 59.5551 78.2096L60.1224 82.6622L54.7212 95.585L96.2316 103L104.598 83.0565L99.377 73.5778C97.5244 70.2146 98.2657 66.0143 101.158 63.4893C111.56 54.4065 113.553 38.818 113.553 38.818L122.346 46.5769C128.737 48.9758 134.637 50.2127 140.053 50.3066C146.01 50.4099 151.383 49.1307 156.182 46.4943L157.027 59.3499C154.546 74.5474 150.844 77.8892 134.164 89.5156L154.239 109.544L155.18 101.388C157.418 81.9867 167.088 68.4835 169.706 52.8738C171.516 42.0801 167.337 31.1473 158.893 24.1901Z" fill="#2F2E41"/>
</g>
<defs>
<clipPath id="clip0_160_1145">
<rect width="554" height="441" fill="white"/>
</clipPath>
</defs>
</svg>
